<?xml version="1.0" encoding="utf-8"?>
<!-- Generator: Adobe Illustrator 20.0.0, SVG Export Plug-In . SVG Version: 6.00 Build 0)  -->
<svg version="1.1" id="圖層_1" xmlns="http://www.w3.org/2000/svg" xmlns:xlink="http://www.w3.org/1999/xlink" x="0px" y="0px"
	 viewBox="0 0 12 13.7" style="enable-background:new 0 0 12 13.7;" xml:space="preserve">
<style type="text/css">
	.st0{fill:#6B6B6B;}
</style>
<g transform="translate(0,-1036.3622)">
	<path class="st0" d="M6,1036.4v1.7c-2.8,0-5.2,1.9-5.9,4.7c-0.6,2.7,0.7,5.5,3.3,6.7s5.6,0.5,7.3-1.7c1.7-2.2,1.7-5.3,0-7.5
		l-1.2,0.9c1.3,1.6,1.3,4,0,5.6c-1.3,1.6-3.6,2.2-5.5,1.3c-1.9-0.9-2.9-3-2.4-5.1c0.5-2.1,2.3-3.5,4.4-3.5v1.8l3-2.5L6,1036.4z"/>
</g>
</svg>
