<?xml version="1.0" encoding="utf-8"?>
<!-- Generator: Adobe Illustrator 20.0.0, SVG Export Plug-In . SVG Version: 6.00 Build 0)  -->
<svg version="1.1" id="圖層_1" xmlns="http://www.w3.org/2000/svg" xmlns:xlink="http://www.w3.org/1999/xlink" x="0px" y="0px"
	 viewBox="0 0 84 94" style="enable-background:new 0 0 84 94;" xml:space="preserve">
<style type="text/css">
	.st0{fill:#00A7C1;}
</style>
<path class="st0" d="M30.7,83.7c0,5.3,4.5,10.3,9.8,10.3c5.3,0,9.6-4.9,9.6-10.3s-4.3-9.7-9.7-9.7C35.1,74.1,30.7,78.4,30.7,83.7z
	 M62.8,83.7c0,5.3,4.5,10.3,9.8,10.3c5.4,0,9.6-4.9,9.6-10.3s-4.3-9.7-9.7-9.7C67.1,74.1,62.8,78.4,62.8,83.7z M0,21.8
	c0,3.1,2.5,5.4,5.7,5.4h11.7L32.6,60c4.6,9.1,12,10.8,20.6,10.8h14.9c8.7,0,14.3-5.9,14.3-14.5V36.5l-48.7-0.1l-9.5-20.3H5.7
	C2.6,16.1,0,18.7,0,21.8z M60.5,1c-3.6-2.1-8.3-0.8-10.4,2.8L38.7,23.4c-1.9,3.3-1,7.5,2,9.8h36.2L83,22.7c2.1-3.6,0.9-8.2-2.8-10.3
	L60.5,1z"/>
</svg>
