<?xml version="1.0" encoding="utf-8"?>
<!-- Generator: Adobe Illustrator 20.0.0, SVG Export Plug-In . SVG Version: 6.00 Build 0)  -->
<svg version="1.1" id="群組_12_拷貝" xmlns="http://www.w3.org/2000/svg" xmlns:xlink="http://www.w3.org/1999/xlink" x="0px"
	 y="0px" viewBox="0 0 253.5 247" style="enable-background:new 0 0 253.5 247;" xml:space="preserve">
<style type="text/css">
	.st0{fill:#00A7C1;}
</style>
<g>
	<g id="多邊形_2">
		<path class="st0" d="M126.7,247l-0.2-0.1l-87.2-36.1l-0.1-0.2l-36-87.1l0.1-0.2l36.1-87.2l0.2-0.1l87.2-36l0.2,0.1l87.2,36.1
			l0.1,0.2l36.1,87.2l-0.1,0.2L214.2,211l-0.2,0.1L126.7,247z M40.2,210.1l86.6,35.9l86.6-35.9l35.9-86.6l-35.9-86.6L126.8,1
			L40.2,36.9L4.3,123.5L40.2,210.1z"/>
	</g>
	<g id="多邊形_2-2">
		<path class="st0" d="M94.8,242.8l-75-57.6V185L7.4,91.5l0.1-0.2L65,16.5h0.2l93.5-12.3l0.2,0.1l74.9,57.4v0.2l12.3,93.5l-0.1,0.2
			l-57.4,74.8h-0.2L94.8,242.8z M20.7,184.7l74.4,57l92.9-12.2l57.1-74.4l-12.2-92.9l-74.5-57L65.5,17.4l-57,74.4L20.7,184.7z"/>
	</g>
</g>
</svg>
