<?xml version="1.0" encoding="utf-8"?>
<!-- Generator: Adobe Illustrator 20.0.0, SVG Export Plug-In . SVG Version: 6.00 Build 0)  -->
<svg version="1.1" id="copy" xmlns="http://www.w3.org/2000/svg" xmlns:xlink="http://www.w3.org/1999/xlink" x="0px" y="0px"
	 viewBox="0 0 513.5 185.1" style="enable-background:new 0 0 513.5 185.1;" xml:space="preserve">
<style type="text/css">
	.st0{fill:#4C4948;}
	.st1{fill:#00A1C0;}
</style>
<g>
	<path class="st0" d="M18.6,42.4H0v6.7h18.6v135.9h7.7V49.1h21.3v-6.7H26.3v-21c0-10.3,5.3-14.8,15.2-14.8c3,0,6.1,0.4,9.1,1V1
		c-3-0.6-6.1-1-9.1-1C14.2,0,18.6,22.3,18.6,42.4"/>
	<path class="st0" d="M100.1,41.9c-15.6,0-35.2,7.5-39.8,23.8h-0.6V42.4H52v105h7.7V90c0-25.1,15.4-40.4,40.4-40.4V41.9z"/>
	<rect x="326.6" y="1.6" class="st0" width="7.7" height="147.8"/>
	<rect x="419.5" y="42.4" class="st0" width="7.7" height="106.9"/>
	<path class="st0" d="M442.1,66.9c0-15.5,17.2-20.2,29.9-20.2c17.4,0,30.6,7.9,30.8,26.7h7.7c0-23.7-16.6-33.4-38.4-33.4
		c-17.4,0-37.6,6.1-37.6,26.9c0,43.1,71.4,18.6,71.4,54c0,17.6-18.6,22.3-33,22.3c-18.8,0-33.2-11.6-34.4-30.8h-7.7
		c0.6,24.5,18.8,37.4,42,37.4c18.6,0,40.7-6.5,40.7-28.9C513.5,76.3,442.1,101.5,442.1,66.9"/>
	<path class="st0" d="M352.5,108.8V42.4h-7.7v64.9c0,25.5,8.3,42.5,37,42.5c8.3,0,16.7-2.6,23.5-7.2v-7.1
		c-5.6,4.8-13.1,7.7-23.3,7.7C359.6,143.2,352.5,128.6,352.5,108.8"/>
	<path class="st0" d="M201.9,95.8h77c0-29.3-12.7-55.8-45.7-55.8c-30.2,0-45.9,23.7-45.9,54.5c0,30.7,15.2,55.4,45.9,55.4
		c24.4,0,40.8-13.7,44.9-38h-7.7c-3.6,19.2-17.6,31.3-37.2,31.3c-26.5,0-38.3-24.5-38.3-49.2c0-30,17.5-47.3,38.3-47.3
		c23.6,0,37.6,20.4,38,42.5h-69.3V95.8z"/>
	<path class="st0" d="M106.1,95.8h77c0-29.3-12.7-55.8-45.7-55.8c-30.2,0-45.9,23.7-45.9,54.5c0,30.7,15.2,55.4,45.9,55.4
		c24.5,0,40.9-13.7,44.9-38h-7.7c-3.6,19.2-17.6,31.3-37.2,31.3c-26.5,0-38.2-24.5-38.2-49.2c0-30,17.5-47.3,38.2-47.3
		c23.7,0,37.6,20.4,38,42.5h-69.3V95.8z"/>
	<path class="st1" d="M303,40c-16.8,0-32.6,10.1-37.8,26.5h-0.4V42.4h-7.7V185h7.7v-59.4V95.1h0.2c0-24.3,10.1-48.3,38-48.3
		c27.5,0,39,24.1,39,48.3c0,24.7-11.1,48.1-39,48.1c-10.5,0-18.3-3-24.1-8.1v8.1c6.8,4.4,15.2,6.6,24.1,6.6
		c33,0,46.7-24.7,46.7-54.8C349.8,65.9,335,40,303,40"/>
</g>
</svg>
