<?xml version="1.0" encoding="utf-8"?>
<!-- Generator: Adobe Illustrator 20.0.0, SVG Export Plug-In . SVG Version: 6.00 Build 0)  -->
<svg version="1.1" id="copy" xmlns="http://www.w3.org/2000/svg" xmlns:xlink="http://www.w3.org/1999/xlink" x="0px" y="0px"
	 viewBox="0 0 122.7 34.9" style="enable-background:new 0 0 122.7 34.9;" xml:space="preserve">
<style type="text/css">
	.st0{fill:#4C4948;}
</style>
<g>
	<path class="st0" d="M10.9,0.5c0,0-1.6,0.9-4.9,3.8C6,4.3,8.1,4,9,4c0,0,0.4,0,0.4,0.3c0,0-2.3,12.4-9.4,17.5l3.1,3.3
		c0,0,3.2-3.1,7.4-11.2c0,0,0.2-0.4,0.5-0.4c0,0,0.1-0.1,0.4,0.4c0,0,4,8,6.3,10.5c0,0,0.6,0.6,1.1,0.2l4.5-3.2c0,0-0.8,0.1-1.6,0
		c-0.8,0-1.3-0.1-2.6-1.8c0,0-1.4-1.5-4.6-8c0,0-0.3-0.5,0.2-0.9c0,0,6.8-5,18.3-7.5c0,0-2.3-2.4-3.7-3.2c0,0-7,2.2-16.9,11.3
		c0,0-0.5,0.6-0.8,0.3c0,0-0.2-0.1,0-0.5c0,0,1.6-4.5,2.2-7.4c0,0,0.1-0.2-0.2-0.4C13.6,3.4,11.8,1.3,10.9,0.5"/>
	<path class="st0" d="M40.3,9.6h3.8c-3.4,5.4-4.5,10.1-4.5,10.1c-0.9,3,2.3,2.4,2.3,2.4l-3.7,2.6c-3.3-0.3-2.4-4.9-2.4-4.9
		c-6.7,9.5-9.2,2.4-9.2,2.4c-1.5-4.5,1.9-9.4,4.9-11.4c2-1.4,3.5-1.7,3.5-1.7c3.9-0.9,3.8,2.7,3.8,2.7C39.9,9.6,40.3,9.6,40.3,9.6
		 M36,18.8c0,0,1.3-3.5,2.2-5.8c0,0,0.8-2-0.6-2.6c0,0-3.2-1.1-6.4,5.7c0,0-2.2,5.2,0.3,5.9C31.4,22,33.7,22.9,36,18.8z"/>
	<path class="st0" d="M54.1,9c0,0-5.3,2.3-6,2.7c0,0,1.4,0,1.8,0c0,0,0.4,0,0.4,0.4c0,0-0.3,5.1-4.3,9.7l2.5,2.8
		c0,0,2.7-3.7,4.8-9.3c0,0,1.4-3.4,3.8-3.8c0,0,2.5-0.6,2,2.9c0,0-0.3,4.7-2.6,10.4l7.5-3.4h-2c0,0-0.4,0-0.2-0.5
		c0,0,2.5-9.3,0.6-11.2c0,0-1.2-1.9-4.6,0.2c0,0-2.6,1.8-4.2,3.8C53.5,13.7,54.3,9.8,54.1,9"/>
	<path class="st0" d="M74.2,22.8c2.4,0.9,5.5-1.1,5.5-1.1c-3.2,3.3-6.8,2.8-6.8,2.8c-6.8-1-4.5-8.5-4.5-8.5
		C71,8.5,78.7,8.8,78.7,8.8c5.4,0.1,3.8,4,3.8,4c-1.8,4.3-10.4,4.6-10.4,4.6C71.3,22.1,74.2,22.8,74.2,22.8 M79.2,12.1
		c1.2-3.3-1.3-3-1.3-3c-4,0.5-5.7,8-5.7,8C77.4,16.7,79.2,12.1,79.2,12.1z"/>
	<path class="st0" d="M93.4,11.8c3.4-3.9,6.6-3.1,6.6-3.1s4.2,0.6,2.7,6.8c-1.8,7.5-7.7,8.8-7.7,8.8c-5.6,1.1-5.5-3.9-5.5-3.9
		c-0.7,1.3-3,4-3,4l-2.6-2.8c6.7-6,7.9-18.3,7.9-18.3c0.1-0.6-0.4-0.6-0.4-0.6c-0.5,0-1.5,0-1.5,0C90.3,2.5,96,0.3,96,0.3
		C95.7,5.1,93.4,11.8,93.4,11.8 M91.3,23c3.5,1.4,6.4-4.8,6.4-4.8c3.3-7.7,0.1-8,0.1-8c-3.1-0.4-4.7,3-4.7,3c-1,2.8-3.1,6.4-3.1,6.4
		C89.5,22.4,91.3,23,91.3,23z"/>
	<path class="st0" d="M122.2,17.8c-2.6,7.5-9.7,6.5-9.7,6.5c-6.8-1-4.7-8.5-4.7-8.5c2.7-8.1,9.8-7.2,9.8-7.2
		C125,9.6,122.2,17.8,122.2,17.8 M117.5,9c0,0-3-0.9-5.3,6.3c0,0-2.8,7.9,0.6,8.7c0,0,3.6,1.3,5.8-7.2C118.5,16.7,120.7,9.4,117.5,9
		z"/>
	<polyline class="st0" points="14.9,28.8 17.7,28.8 17.7,29.3 15.5,29.3 15.5,31.4 17.6,31.4 17.6,31.9 15.5,31.9 15.5,34.8 
		14.9,34.8 14.9,28.8 	"/>
	<polyline class="st0" points="20.5,28.8 23.4,28.8 23.4,29.3 21.1,29.3 21.1,31.4 23.3,31.4 23.3,31.9 21.1,31.9 21.1,34.2 
		23.5,34.2 23.5,34.8 20.5,34.8 20.5,28.8 	"/>
	<polyline class="st0" points="26.5,28.8 29.4,28.8 29.4,29.3 27.1,29.3 27.1,31.4 29.3,31.4 29.3,31.9 27.1,31.9 27.1,34.2 
		29.5,34.2 29.5,34.8 26.5,34.8 26.5,28.8 	"/>
	<polyline class="st0" points="32.4,28.8 33,28.8 33,34.2 35.4,34.2 35.4,34.8 32.4,34.8 32.4,28.8 	"/>
	<polyline class="st0" points="41.6,32.2 39.4,28.8 40.1,28.8 41.9,31.7 43.8,28.8 44.5,28.8 42.2,32.2 42.2,34.8 41.6,34.8 
		41.6,32.2 	"/>
	<path class="st0" d="M49.4,29.2c1.4,0,2,1.3,2,2.6s-0.6,2.6-2,2.6s-2-1.3-2-2.6C47.3,30.5,48,29.2,49.4,29.2 M46.7,31.8
		c0,1.8,0.9,3.1,2.6,3.1s2.6-1.3,2.6-3.1c0-1.6-0.8-3.1-2.6-3.1S46.7,30.2,46.7,31.8z"/>
	<path class="st0" d="M59.2,32.7c0,1.8-1.3,2.2-2.2,2.2c-0.9,0-2.2-0.4-2.2-2.2v-3.9h0.6v3.9c0,1,0.5,1.7,1.6,1.7
		c1,0,1.6-0.7,1.6-1.7v-3.9h0.6V32.7"/>
	<path class="st0" d="M63,29.3h0.6c0.8,0,1.5,0.1,1.5,1c0,0.8-0.8,1.1-1.5,1.1H63V29.3 M62.4,34.8H63V32h0.5c0.6,0,0.8,0,1.2,0.8
		l0.9,2h0.7l-1-2.3c-0.2-0.4-0.3-0.7-0.8-0.7l0,0c0.7-0.1,1.3-0.6,1.3-1.4c0-1.1-0.7-1.6-1.7-1.6h-1.5v6H62.4z"/>
	<path class="st0" d="M73.5,31.9H74c0.9,0,1.8,0.1,1.8,1.2c0,1-0.9,1.2-1.7,1.2h-0.6L73.5,31.9 M72.9,34.8h1.2
		c1.3,0,2.3-0.4,2.3-1.7c0-0.8-0.5-1.3-1.3-1.4l0,0c0.7-0.1,1.1-0.6,1.1-1.4c0-1.2-0.9-1.5-1.9-1.5h-1.4
		C72.9,28.8,72.9,34.8,72.9,34.8z M73.5,29.3h0.8c0.5,0,1.3,0.1,1.3,1s-0.8,1.1-1.5,1.1h-0.7L73.5,29.3L73.5,29.3z"/>
	<polyline class="st0" points="79.7,28.8 82.7,28.8 82.7,29.3 80.3,29.3 80.3,31.4 82.5,31.4 82.5,31.9 80.3,31.9 80.3,34.2 
		82.8,34.2 82.8,34.8 79.7,34.8 79.7,28.8 	"/>
	<path class="st0" d="M89.2,32.6h-2.6l1.3-3.3L89.2,32.6 M85.1,34.8h0.6l0.6-1.6h3l0.6,1.6h0.6l-2.4-6h-0.7L85.1,34.8z"/>
	<path class="st0" d="M97.5,32.7c0,1.8-1.3,2.2-2.2,2.2c-0.9,0-2.2-0.4-2.2-2.2v-3.9h0.6v3.9c0,1,0.5,1.7,1.6,1.7
		c1,0,1.6-0.7,1.6-1.7v-3.9h0.6V32.7"/>
	<polyline class="st0" points="101.7,29.3 100,29.3 100,28.8 104.1,28.8 104.1,29.3 102.3,29.3 102.3,34.8 101.7,34.8 101.7,29.3 	
		"/>
	<polyline class="st0" points="107.7,32.2 105.5,28.8 106.1,28.8 108,31.7 109.9,28.8 110.5,28.8 108.3,32.2 108.3,34.8 107.7,34.8 
		107.7,32.2 	"/>
</g>
</svg>
