<?xml version="1.0" encoding="utf-8"?>
<!-- Generator: Adobe Illustrator 20.0.0, SVG Export Plug-In . SVG Version: 6.00 Build 0)  -->
<svg version="1.1" id="分離模式" xmlns="http://www.w3.org/2000/svg" xmlns:xlink="http://www.w3.org/1999/xlink" x="0px"
	 y="0px" viewBox="0 0 37.1 31.6" style="enable-background:new 0 0 37.1 31.6;" xml:space="preserve">
<style type="text/css">
	.st0{fill:#E8F4FC;}
</style>
<g>
	<path class="st0" d="M29.6,26.1c0.6-0.1,1.2-0.4,1.8-0.8C31,25.7,30.4,25.9,29.6,26.1"/>
	<path class="st0" d="M8.3,10.2c-0.9-0.2-2.7,0-2.1,0.9C7,12.3,7.4,10.6,8.3,10.2"/>
	<path class="st0" d="M8.6,10.7c-0.2,0.4-0.7,1-0.7,1.6c0,0.6,0.4,1.1,0.9,0.7C9.9,12.3,8.6,12,8.6,10.7"/>
	<path class="st0" d="M11.6,11.2c-0.5-1.3-1.2,0-2.5-0.3c0.4,0.3,0.9,0.9,1.6,1C11.3,12,11.9,11.7,11.6,11.2"/>
	<path class="st0" d="M11.4,8.9c-1.2-0.7-0.7,0.5-1.6,1C10.5,10.5,12.5,9.6,11.4,8.9"/>
	<path class="st0" d="M9.2,9.4c1-0.4,1-2.9-0.1-2.1C7.9,8.1,9.4,8.2,9.2,9.4"/>
	<path class="st0" d="M8.5,9.7c0.2-1.2-1.9-2.6-2-1.3C6.3,9.9,7.7,8.8,8.5,9.7"/>
	<path class="st0" d="M8.8,15.6c0.7,1.1,1.1-0.4,1.9-0.8C9.9,14.6,8.3,14.8,8.8,15.6"/>
	<path class="st0" d="M11.5,15.5c0.3,0.3,0.8,0.8,1.5,0.9c0.6,0.1,1.1-0.2,0.9-0.7C13.3,14.6,12.7,15.7,11.5,15.5"/>
	<path class="st0" d="M13.5,13.7c-1.1-0.7-0.6,0.5-1.5,0.9C12.7,15.1,14.6,14.3,13.5,13.7"/>
	<path class="st0" d="M11.6,14.1c0.9-0.3,0.9-2.6-0.1-1.9C10.4,13,11.7,13,11.6,14.1"/>
	<path class="st0" d="M9.1,13.2c-0.1,1.3,1.1,0.3,1.8,1.2C11.1,13.3,9.2,12,9.1,13.2"/>
	<path class="st0" d="M4.5,16c0,0.6,0.4,1,0.8,0.7c1-0.7-0.1-1-0.2-2.1C4.9,14.9,4.5,15.5,4.5,16"/>
	<path class="st0" d="M5.5,14.8c0.3,0.3,0.8,0.8,1.4,0.9c0.6,0.1,1.1-0.2,0.9-0.6C7.4,13.9,6.7,15,5.5,14.8"/>
	<path class="st0" d="M7.6,13c-1.1-0.6-0.6,0.5-1.5,1C6.8,14.4,8.6,13.6,7.6,13"/>
	<path class="st0" d="M5.7,13.4c0.9-0.3,0.9-2.6-0.1-1.9C4.5,12.3,5.8,12.3,5.7,13.4"/>
	<path class="st0" d="M26.5,8.5c-0.8,0.4-2,0.6-3.3,0.3c-1.3-0.3-2-1.4-2.3-2.1C20.8,7.3,21.4,9,23,9.4c0.8,0.2,1.7,0.1,2.4-0.2
		c-1.2,1-1.6,2.6-1.4,3.4c0.1-1,1.1-2.8,2.8-3.5c1.7-0.8,3.7-0.6,4.9-0.2C30.8,8.1,28.4,7.5,26.5,8.5"/>
	<path class="st0" d="M22.8,7.5c0,0.8,0.9,1.4,1.4,1.3c-0.8-0.6-0.8-2-0.6-2.9C23.2,6,22.7,6.7,22.8,7.5"/>
	<path class="st0" d="M25.6,11.5c0,1,0.5,1.9,1,2.2c-0.3-1.1-0.5-3.3,0.6-4.2C26.5,9.5,25.5,10.4,25.6,11.5"/>
	<path class="st0" d="M29.3,13.8c-0.7-0.8-1.9-2.9-1.5-4.1C26.3,10.7,28.1,14,29.3,13.8"/>
	<path class="st0" d="M36,13.6c0.8-0.4,1.1-1.4,1.1-1.8c-0.3,0.9-2,2-3.1,1.4c-0.1-0.2-0.3-0.4-0.4-0.6c0-0.1,0-0.2,0-0.3
		c0.3,0.1,0.5,0.1,0.8,0c0.7,0,1-0.8,0.9-1.1c0.1,0.1,0.3,0.2,0.4,0.3c0.1-0.8-1.8-2.2-2.8-1.5c-0.1-0.2-0.1-0.3-0.2-0.5
		c0.8-0.6,2.3-0.3,3-0.1c-0.2-0.3-0.8-0.8-1.6-0.8C33.5,8.7,33,9,32.7,9.4C32.8,9.2,32.9,9.1,33,9c0.7-0.9,1.8-1.2,2.4-1.3
		c-0.4-0.1-1.2-0.1-2,0.3c0.1-0.4,0.2-0.9,0.1-1.4c-0.1-1.2-1.2-1.8-1.8-1.7c0.5,0.3,1.2,0.9,1.3,1.8c0.1,0.5,0,1.1-0.1,1.6
		c-0.1,0.1-0.3,0.2-0.4,0.4c-0.1,0.1-0.2,0.2-0.3,0.4c-0.3-0.6-0.6-1.2-1-1.8c-0.1-0.2-0.2-0.3-0.3-0.5c0.7-0.1,1.4,0.6,1.8,1.2
		c0.1-0.4-0.1-1-0.6-1.4c-0.4-0.3-1-0.2-1.3,0c-0.3-0.5-0.7-0.9-1.1-1.4c0.1,0,0.2,0,0.3,0C30.1,5.1,29.9,5,29.7,5
		c-0.3-0.3-0.6-0.6-0.9-0.9c1-0.4,2.2-0.4,2.9-0.1c-0.3-0.5-1.5-1.1-2.6-0.7c-0.3,0.1-0.6,0.2-0.8,0.3c-0.2-0.2-0.4-0.3-0.6-0.5
		c0.5-1.5,1.6-2.4,2.6-2.4c-0.9-0.5-2.5,0.5-3.1,2c-1.3-0.9-2.9-1.6-4.5-2.1c-4-1.1-8.8-0.6-12.7,1.9C5.8,5,3,9.4,2.5,14.2
		c-0.1,1.1-0.1,2.2,0,3.3c-0.8,0.3-1.4,0.7-1.9,1.1c0.6-0.1,1.2-0.3,2-0.5c0.1,0.7,0.3,1.4,0.5,2.1C1.8,21,0.8,22,0,22.9
		c0.9-0.8,1.9-1.6,3.2-2.4c0.8,2.6,2.3,4.9,4.2,6.7c3.5,3.3,8.3,4.8,12.7,4.2c2.7-0.3,5.1-1.3,7.1-2.8c0.8-0.2,1.4-0.1,2.1,0
		c0.7,0.1,1.5,0.2,1.7-0.3c0.2-0.5-0.1-0.7-1.1-0.7c-0.6,0-1.6,0.3-2.2,0.6c0.5-0.3,0.9-0.7,1.3-1.1c0.6,0.2,1.2,0.3,1.8,0.3
		c1.3,0.1,2.4,0,3.4-0.3c-1.4,0.2-2.9-0.1-4.5-0.8c0.1-0.1,0.2-0.2,0.3-0.3c0.8-0.3,2-0.3,2.4-0.1c0.7,0.2,0.9-0.1,0.9-0.4
		c0-0.6-1.6-0.8-2.8-0.1c0,0,0.1-0.1,0.1-0.1c0.8-1,1.4-2,1.8-3.1c0.5-0.2,1.2-0.2,1.6-0.1c0.4,0.1,0.9,0.2,1.2-0.2
		c0.2-0.4-0.2-1-1.1-0.9c-0.6,0.1-1.1,0.5-1.4,0.8c0.1-0.3,0.2-0.6,0.4-0.9c1.5-0.3,2.8-1,3.4-1.7c-0.8,0.6-1.9,1-3.3,1.2
		c0.1-0.4,0.2-0.8,0.3-1.2c0.6-0.5,1.2-0.8,1.6-1c0.3-0.2,0.4-0.3,0.4-0.5c0-0.6-0.9-0.5-1.2-0.1c-0.2,0.3-0.5,0.6-0.6,1
		c0.1-0.7,0.2-1.3,0.2-1.9c0.6-0.5,0.9-1.7,0.5-2.8c0-0.2-0.1-0.3-0.2-0.5C34.5,13.8,35.4,14.1,36,13.6 M33.4,12.5
		c-0.1-0.1-0.2-0.2-0.3-0.2c0.1,0,0.1,0.1,0.2,0.1C33.4,12.4,33.4,12.5,33.4,12.5 M35.2,11.2c-0.1,0.7-1,0.8-1.8,0.8
		c-0.1-0.6-0.3-1.1-0.5-1.7C33.6,10.2,34.6,10.7,35.2,11.2 M29,4.9c-0.3,0-0.6,0.1-0.8,0.3c-0.4,0.2-0.7,0.7-0.8,1.1
		c-0.1-0.4-0.2-0.8-0.2-1.2c0.3-0.3,0.6-0.6,1-0.8C28.5,4.5,28.8,4.7,29,4.9 M27.8,3.8c-0.2,0.2-0.4,0.4-0.5,0.7
		c0-0.3,0.1-0.6,0.1-0.9c0,0,0,0,0-0.1C27.5,3.6,27.7,3.7,27.8,3.8 M3.4,17.9c1.1-0.2,2.3-0.4,3.4-0.3c0.7,0,1.3,0.1,2,0.2
		c-0.7,0.1-1.5,0.3-2.1,0.5c-1.1,0.4-2,0.8-2.9,1.4C3.6,19.1,3.5,18.5,3.4,17.9 M19.5,28.8c1.7-0.2,2.5-1.2,2.1-1.6
		c-0.1-0.2-0.3-0.1-0.6,0c-0.4,0.2-0.7,0.8-1.3,1.1c-0.4,0.2-0.8,0.3-1.3,0.4c0.3-0.3,0.5-0.6,0.6-1c0.1-0.3,0.1-0.8-0.3-0.8
		c-0.4,0-0.5,0.4-0.5,0.7c0,0.4-0.2,0.8-0.6,1.2c-1.5,0.3-3.2,0.3-4.8-0.2c-0.5-0.1-1.1-0.3-1.6-0.5c0.4,0,0.8-0.1,1.1-0.3
		c0.5-0.2,0.9-0.6,1.1-1c0.6-0.1,1.2,0,1.6,0.2c0.6,0.3,1,0.7,1.4,0.3c0.4-0.3,0-1.2-1-1.4c-0.6-0.1-1.2,0-1.7,0.3
		c0.2-0.6,0.2-1.3,0-1.9c0.2-0.7,0.5-1,0.8-1.2c0.2-0.2,0.5-0.4,0.3-0.7c-0.3-0.4-0.9-0.3-1.2,0.2c-0.2,0.3-0.2,0.9-0.2,1.2
		c-0.4-0.9-1.1-1.4-2.1-1.6c-0.1-0.5-0.2-0.7-0.2-1.2c0-0.3,0.2-0.9-0.3-1c-0.2,0-0.4,0.1-0.5,0.3c-0.1,0.2,0,0.6,0.1,0.9
		c0.2,0.5,0.5,1,0.5,1C10,22,9.2,22.2,9.4,22.8c0.3,1.1,2.2-0.4,3.4,1.4c0.7,1.2,0.5,2.5-0.6,3.1c-0.3,0.2-0.7,0.3-1.1,0.4
		c0.3-0.3,0.4-0.7,0.4-1.2c0-0.7,0.5-0.9,0.8-1c0.3-0.1,0.5-0.5,0.3-0.8c-0.2-0.4-1-0.3-1.2,1c-0.1-0.9-0.4-1.6-1.2-1.9
		c-1.7-0.6-3.1,0.3-2.7,0.9c0.3,0.7,1.3-0.4,2.4-0.1c0.1,0,0.5,0.2,0.6,0.5c-0.4-0.2-0.9-0.2-1.3,0c-0.9,0.6-0.6,1.4-0.1,1.4
		c0.5,0,0.6-0.3,0.7-0.5c0.2-0.2,0.5-0.4,0.9-0.5c0.5,0.7,0.6,1.6,0,2.1c-0.1,0-0.2,0-0.4,0c-1.3-0.6-2.5-1.4-3.5-2.2
		c-1-1.1-1.7-2.4-2.3-3.8c0.8,1,2.4,1.6,2.5,0.6c0.1-1-1.5-0.4-2.7-1.2c-0.1-0.3-0.2-0.7-0.4-1c0.4-0.2,0.8-0.4,1.2-0.6
		c0.8,0.1,1.6,0.5,2.1,1c0.6,0.5,0.7,0.8,1.2,0.8c0.5-0.1,0.4-1.2-0.6-1.7c-0.6-0.4-1.4-0.4-2.1-0.3C6,19.2,6.4,19,6.9,18.9
		c1-0.3,2.1-0.5,3.2-0.6c0.9,0.5,1.7,1.2,2,2c0.5,1,0.7,1.9,1.2,1.8c0.6-0.1,0.6-1.2-0.3-2.4c-0.5-0.7-1.3-1.2-2.1-1.5
		c0.9,0,1.9,0,2.8,0.1c0.7,0.3,1.4,0.6,2.2,0.9c0.6,2.1-1.5,4.4-0.7,4.9c1.1,0.9,2.1-3,0.9-4.8c0.1,0,0.1,0.1,0.2,0.1
		c0.7,1.1,1.2,2.7,1.3,4c0.1,1.4-0.2,2.2,0.3,2.5c0.6,0.3,1.3-1.1,0.8-2.6c-0.3-1.4-1.3-2.9-2.2-3.8c0.1,0.1,0.2,0.1,0.4,0.2
		c1.2,1.1,2.5,2.6,3.2,4c0.8,1.5,0.8,2.8,1.4,2.8c0.6,0,0.7-1.7-0.4-3.3c-0.8-1.2-2-2.2-3.2-3c1,0.5,2,1.1,3,1.7
		c1.2,1.3,2.2,3,2.2,4.5c0,1.9-1.6,2.4-1.4,2.9c0.1,0.3,0.6,0.4,1.3-0.1c0.7-0.4,1.4-1.6,1.2-2.9C24,25,22.8,23.5,22,22.6
		c0.5,0.4,1.4,1.2,1.9,1.6c1.4,1.1,3,2.2,4.7,2.8c-0.8,0.7-1.8,1.4-2.8,2c0.4-0.4,0.6-1,0.7-1.6c0-1.4-1.2-1.6-1.4-1.2
		c-0.2,0.5,0.1,0.7,0.3,1.2c0.1,0.5,0,1.3-0.3,1.9c-1.5,0.7-3.2,1.2-5,1.4c-3.2,0.4-6.7-0.4-9.6-2.2c0.7,0.3,1.4,0.5,2.2,0.7
		c1.4,0.4,3.1,0.4,4.4,0.2c0.9,0,1.1,0.2,1.4,0.4c0.3,0.2,0.9,1,1.4,0.6c0.4-0.3-0.2-0.9-0.7-1.1c-0.2-0.1-0.5-0.2-0.8-0.2
		c0.2-0.1,0.4-0.1,0.6-0.2c1,0,1.9,1.1,2.3,0.8C21.5,29.5,20.9,28.7,19.5,28.8 M31,24.4c-0.2,0.3-0.4,0.5-0.6,0.8
		c-0.3,0.4-0.7,0.8-1,1.2c-1.1-0.4-3.9-1.8-5-2.7c0.1,0,1.4,0.6,2.7,1.1c1.5,0.6,2.4,0.4,2.8,0c0.5-0.5,0.3-1.1,0.1-1.2
		c-0.6-0.3-1.1,0.7-2.7,0.5c-1.4-0.1-3-0.8-4.4-1.5c0,0-0.9-0.5-0.9-0.5c1,0.4,1.9,0.7,3.1,1c1.8,0.4,2.8-0.4,2.5-1.1
		c-0.4-0.6-1.1,0.2-2.5,0.1c-1.2,0-2.4,0-3.7-0.6c0,0-0.4-0.3-0.4-0.3c0.8,0.1,1.4,0.1,1.8,0c0.6-0.2,1.1-0.7,0.8-0.9
		c-0.4-0.3-0.6-0.2-1.3,0.2c-0.4,0.2-1.1,0.5-1.9,0.4c-1-0.6-3.1-1.8-4.1-2.2c0.1,0,0.2,0,0.4,0.1c2.4,0.4,5,0.7,7.3,0.7
		c0.5,0.3,0.9,0.5,1.4,0.7c0.8,0.3,1.5,0.6,2.3,0.8c0.2,0.5,0.3,0.7,0.3,1.2c-0.1,0.7,0,0.9,0.3,1c0.7,0.2,0.7-0.7,0.7-1
		c-0.1-0.4-0.4-0.9-0.9-1.1c1.5,0.2,3.5,0.3,4.7,0.1c-0.3,0.9-0.8,1.8-1.3,2.6c0.2-0.4,0.2-0.8,0-1.3c-0.5-0.9-1.2-0.8-1.4-0.4
		c-0.2,0.4,0.1,0.8,0.4,1C30.9,23.1,31.1,24,31,24.4 M22.9,18.7c-1.1,0-2.3-0.2-3.5-0.3c0.8-0.1,1.6-0.4,2.3-0.9
		C22.1,17.9,22.5,18.3,22.9,18.7 M33.8,16.4c0-0.2,0-0.4,0-0.6C33.8,16,33.8,16.3,33.8,16.4c-0.2,0.3-0.3,0.4-0.6,0.5
		c0.2,0,0.3-0.1,0.5-0.2c-0.1,0.8-0.2,1.7-0.4,2.5c0,0.1-0.1,0.1,0,0.1c-0.1,0.4-0.2,0.7-0.3,1.1c0,0,0,0-0.1,0
		c0.4-0.6,0.2-1.7-0.3-2c-0.2-0.2-0.6-0.1-0.7,0.1c-0.3,0.3-0.2,0.7,0,0.9c0.2,0.2,0.7,0.5,0.9,1.1c-1.2,0.1-2.8,0.1-4.1-0.1
		c1.3-0.1,2.4-1.1,1.8-1.6c-0.3-0.2-0.6-0.1-0.9,0.1c-0.4,0.3-0.7,1-1.4,1.3c-0.6-0.2-1.9-0.5-2.5-0.8c-0.1,0-0.2-0.1-0.2-0.1
		c0.3,0,0.6-0.1,0.9-0.1c3-0.4,5.3-1.7,6.8-2.7c-1.5,0.8-3.6,1.7-6.3,2.1c0.6-0.3,1.3-1.3,1.2-2.1c0-1.1-0.9-1.6-1.2-1.2
		c-0.4,0.4-0.1,0.7,0.1,1.3c0.2,0.5,0.2,1.5-0.3,2.1c-0.1,0-0.2,0-0.4,0c-0.6,0.1-1.3,0.1-2,0.1c-0.8-0.5-1.4-1.1-1.9-1.7
		c0.2-0.2,0.4-0.4,0.5-0.6c0.8,0,1.3,0.4,1.7,0.7c0.3,0.2,0.7,0.2,0.9,0c0.4-0.5,0-1-0.8-1.1c-0.6-0.2-1.1,0-1.6,0.2
		c0.1-0.2,0.4-1,0.5-1.2c0.6-0.1,1,0.3,1.3,0.4c0.2,0.1,0.5,0,0.7-0.1c0.4-0.5-0.1-0.9-0.9-1c-0.3,0-0.8,0.1-1,0.3
		c0.1-0.3,0.1-0.5,0.1-0.8c0.3-0.2,0.7-0.1,1-0.1c0.4,0,0.6-0.3,0.5-0.6c-0.1-0.6-0.9-0.3-1.4,0.3c0-1.1-0.3-1.9-0.8-1.8
		c-0.5,0.1-0.7,0.5-0.5,1.2c0.2,1.3,0.3,2.4-0.4,3.7c-1.4-2.1-2.2-4.8-2.4-6.5c0,1.5,0,3.4,0.9,5.5c0.2,0.5,0.6,1.2,0.9,1.7
		c-0.8,0.7-1.9,1.1-3,1.2c-0.5-0.1-1.1-0.2-1.6-0.3c-0.6-0.1-1.2-0.2-1.7-0.2c2.1-0.1,3.8-3.2,3-3.4c-0.5,0.2-0.8,0.9-1.4,1.7
		c-0.5,0.7-1.1,1.1-2.4,1.6c-0.3,0-0.6,0-0.9-0.1c1-0.3,1.6-1,1.8-1.8c0.4-1,0.4-1.7,0-1.8c-1-0.3-0.1,2.6-2.3,3.5
		c-0.6,0-1.2,0-1.8,0c0,0,0,0-0.1,0c0.1,0,0.2,0,0.3-0.1c1-0.7-0.1-1-0.2-2.1c-0.2,0.4-0.6,0.9-0.6,1.5c0,0.3,0.1,0.6,0.3,0.7
		c-1.1-0.3-2.4-0.6-3.8-0.7c-1.3-0.1-2.5,0.2-3.5,0.5c-0.1-0.6-0.1-1.3-0.1-1.9c0.5,0.3,0.9-0.9,1.5-1.2c-0.4-0.1-1-0.1-1.5,0
		c0-0.3,0.1-0.6,0.1-0.9c0.4,0.1,1.1-0.1,1.5,0.5c0.1-0.7-0.7-1.6-1.3-1.7C4.7,8.4,7,5.2,10,3.2c-0.4,0.5-0.7,1.3-0.8,2
		C8.4,6.4,7,5.9,6.9,6.7C6.8,7.4,7.5,7.5,8.2,7c0.7-0.3,0.9-1.1,1.1-1.7c0,0.3,0.1,0.6,0.2,0.9c0.8,1.5,2.1,1.7,2.3,1.2
		c0.2-0.4-1-0.7-1.5-1.6C9.7,5.1,10,3.5,10.8,2.7C12,2,13.3,1.5,14.6,1.1c-1.2,1.1-1.8,3.6-0.9,5.7c0.9,2.5,3.2,3.8,4.5,4.1
		c-1.2-0.5-3.2-2-4-4.3c-0.8-2-0.4-4.4,0.7-5.6c2.5-0.6,5.1-0.6,7.4,0.1c1.7,0.4,3.2,1.1,4.5,2c0,0.1-0.1,0.2-0.1,0.3
		c-0.1,0.2-0.1,0.4-0.1,0.7c-0.2-0.7-1-1.6-2.1-1.6c-1.3-0.1-2.3,0.8-2.5,1.3c0.6-0.3,1.5-0.7,2.5-0.7c1,0,1.7,0.7,2.2,1.3
		c0,0.4,0.1,0.9,0.2,1.3c-0.3-0.4-0.8-0.7-1.5-0.6c-1.4,0.4-1.2,1.9-0.9,2.2c0.2-0.5,0.4-1.5,1-1.6c0.7-0.1,1.4,0.6,1.9,1
		c0.3,0.5,0.8,0.9,1.3,1c-0.3-0.3-0.6-0.6-0.8-1.1c0.3-0.7,1-1.2,1.8-1.5c1.2,1.2,2.1,2.6,2.8,4c-0.4,0.9-0.4,1.9-0.2,2.4
		c0.1-0.5,0.2-1.2,0.4-1.9c0.3,0.7,0.6,1.4,0.8,2.1c-0.2,0-0.4,0-0.6,0c-0.4-0.2-0.8-0.3-1.2-0.2c0.3,0,0.6,0.1,0.9,0.3
		c0.2,0.8-0.4,1.6-1,2c0.3,0,1-0.1,1.3-0.7c0.2-0.4,0.2-0.8,0-1c0.2,0.2,0.5,0.5,0.6,0.8c-0.2,1.1-1.4,2.2-2.3,2.3
		c0.4,0.2,1.3,0.1,1.9-0.5c0.4-0.4,0.6-0.9,0.6-1.4c0,0.1,0.1,0.2,0.1,0.3c0.1,0.7,0.1,1.4,0.1,2c0-0.6,0-1.2-0.1-1.8
		C34.1,14.9,34.1,15.8,33.8,16.4"/>
	<path class="st0" d="M16.8,6.6c0-1-0.7-4-2.2-4.5C15.1,3.3,15.8,5.8,16.8,6.6"/>
	<path class="st0" d="M21.1,2.5c-1.1,0.1-3.4,0.7-4.7,0.9C17.6,4.4,20.6,3.5,21.1,2.5"/>
	<path class="st0" d="M18.1,6c-0.1,1,0.8,2,1.4,2.5C19.9,7.8,18.9,6.2,18.1,6"/>
	<path class="st0" d="M13.4,3.3c-0.6-0.4-1.6,0-1.9,0.6C12.1,4.3,13.1,4,13.4,3.3"/>
	<path class="st0" d="M13,5.1c-0.8-0.1-1.5,0.7-1.4,1.3C12.2,6.5,13,5.8,13,5.1"/>
	<path class="st0" d="M15.5,6.6c0-0.5-0.9-1.2-1.5-0.6C14.3,6.6,15,6.9,15.5,6.6"/>
	<path class="st0" d="M12.6,8.8c0.6-0.2,1-1.1,0.6-1.7C12.5,7.3,12.2,8.3,12.6,8.8"/>
	<path class="st0" d="M15,7.5c0.2,0.7,1.2,1.1,1.8,0.6C16.5,7.7,15.7,7.2,15,7.5"/>
	<path class="st0" d="M13.7,10.4c0.5-0.3,0.8-1.2,0.4-1.9C13.4,8.8,13.3,9.9,13.7,10.4"/>
	<path class="st0" d="M14.2,13.3c0.4-0.5,0.5-1.4-0.1-1.9C13.5,11.8,13.7,13,14.2,13.3"/>
	<path class="st0" d="M12.6,11.4c0.5-0.3,0.8-1.2,0.4-1.9C12.3,9.8,12.1,10.9,12.6,11.4"/>
	<path class="st0" d="M16.2,9.1c0.3,0.5,1.1,0.5,1.4,0C17.4,8.6,16.6,8.4,16.2,9.1"/>
	<path class="st0" d="M15.1,9.8c-0.6,0.5-0.5,1.4,0,1.8C15.7,11.2,15.7,10.2,15.1,9.8"/>
	<path class="st0" d="M17.6,10.1c0.3,0.7,1.3,0.6,1.6,0.1C18.8,9.7,18,9.6,17.6,10.1"/>
	<path class="st0" d="M16.5,10.6c-0.4,0.6,0.1,1.4,0.7,1.5C17.5,11.5,17.2,10.8,16.5,10.6"/>
	<path class="st0" d="M18,11.2c0.1,0.7,0.6,0.9,1.1,0.8C19.3,11.4,18.6,10.7,18,11.2"/>
	<path class="st0" d="M20.6,1c-0.6,0-0.9,0.4-0.8,1C20.5,2.3,21,1.5,20.6,1"/>
	<path class="st0" d="M22.3,1.4c-0.5-0.3-0.9-0.1-0.9,0.6C21.9,2.4,22.4,1.9,22.3,1.4"/>
	<path class="st0" d="M21.7,3.6C21.8,3,21.4,2.8,21,3.3C21,3.9,21.4,4,21.7,3.6"/>
	<path class="st0" d="M20,3.8c-0.3,0.6,0.3,1,0.8,0.7C20.9,3.9,20.6,3.6,20,3.8"/>
	<path class="st0" d="M19.7,5.9c-0.3,0.6,0.3,1,0.8,0.7C20.6,6,20.3,5.7,19.7,5.9"/>
	<path class="st0" d="M20,7.1c-0.3,0.6,0.3,1,0.8,0.7C20.9,7.2,20.6,6.9,20,7.1"/>
	<path class="st0" d="M17.1,7.1c-0.3,0.6,0.3,1,0.8,0.7C18,7.2,17.7,6.9,17.1,7.1"/>
	<path class="st0" d="M18.7,4.6c-0.1,0.7,0.4,1,0.9,0.9C19.8,5,19.3,4.3,18.7,4.6"/>
	<path class="st0" d="M17.9,5.7c0.3-0.5,0.3-0.6-0.3-0.8C17,5,17.4,5.8,17.9,5.7"/>
	<path class="st0" d="M16.3,2c-0.1-0.7-0.5-0.8-1-0.5C15.2,2.1,15.8,2.5,16.3,2"/>
	<path class="st0" d="M17.4,2.5c0.3-0.5,0.1-0.9-0.5-0.9C16.5,2,16.7,2.6,17.4,2.5"/>
	<path class="st0" d="M18.4,2.1C19,2,19.1,1.7,18.7,1.3C18.2,1.1,17.9,1.8,18.4,2.1"/>
	<path class="st0" d="M20.9,5.8c0.6-0.1,0.7-0.4,0.3-0.8C20.8,4.9,20.4,5.5,20.9,5.8"/>
	<path class="st0" d="M18.4,9.2c0.6-0.1,0.7-0.4,0.3-0.8C18.2,8.2,17.9,8.8,18.4,9.2"/>
	<path class="st0" d="M15.2,4.1c-0.5-0.3-0.9-0.1-0.9,0.5C14.8,5.1,15.3,4.7,15.2,4.1"/>
	<path class="st0" d="M28,17.5c1.1-0.6,2,0.7,2.4-0.3C31,15.9,28.3,16.3,28,17.5"/>
	<path class="st0" d="M29.3,15.3c0.1-0.7-0.4-1-0.8-0.8c-0.4,0.2-0.4,0.6-0.3,0.9c0.1,0.3,0.2,0.9,0,1.3
		C28.6,16.5,29.3,16.1,29.3,15.3"/>
	<path class="st0" d="M30.8,14.7c-0.8-0.6-0.8,0.7-1.5,1.4C30,16.3,31.6,15.3,30.8,14.7"/>
	<path class="st0" d="M21,12.6c-0.3,0.3-0.1,0.7,0.2,1c0.3,0.2,0.8,0.4,1.1,0.9C22.5,13.6,21.7,12,21,12.6"/>
	<path class="st0" d="M29.1,11.2c-0.1,1.5,1,2,1.5,1.6c0.4-0.4-0.2-0.8-0.4-1.6c-0.2-0.8,0.6-2.1,1.7-1.7
		C31.1,8.8,29.1,9.7,29.1,11.2"/>
	<path class="st0" d="M30.2,7.8c-0.4-0.3-0.5-0.6-0.5-0.8c-0.1-0.5,0.1-0.9-0.3-1.1c-0.7-0.2-0.7,0.7-0.5,1.3
		C29.1,7.7,29.7,7.8,30.2,7.8"/>
	<path class="st0" d="M26.5,7.6c-0.4-0.6,0.3-1.3-0.8-1C24.4,7,25.9,7.8,26.5,7.6"/>
	<path class="st0" d="M20.8,12.2c0.3,0.1,0.7-0.1,0.8-0.4c0.1-0.4,0-0.9,0.3-1.4C21,10.4,19.7,11.8,20.8,12.2"/>
	<path class="st0" d="M20.6,9.6c0.1,0.3,0.4,0.6,0.7,0.5c0.3-0.1,0.8-0.5,1.3-0.4C22.3,8.9,20.4,8.5,20.6,9.6"/>
	<path class="st0" d="M22,5.6c0.5,0.4,0.8-0.1,1.4-0.5C24,4.7,25,4.3,25.9,4.4C25.1,4.1,24,3.8,23,4.1C21.9,4.3,21.5,5.2,22,5.6"/>
	<path class="st0" d="M14.8,13.7c1.2,0.5,3.7-0.3,3.2-1C17.7,12,15.7,13.6,14.8,13.7"/>
	<path class="st0" d="M17.2,17.8c1.2,0.4,3.6-0.7,3.1-1.4c-0.1-0.1-0.3-0.1-0.6,0C19.3,16.6,18.7,17.4,17.2,17.8"/>
	<path class="st0" d="M15.1,15.3c0.5,0.4,1.9,0.1,1.6-0.5c-0.1-0.2-0.2-0.2-0.4-0.1C15.9,14.8,15.7,15.1,15.1,15.3"/>
	<path class="st0" d="M17.6,16.2c3.7,0.5,1.5-3.2,0.9-2.6C17.9,14.3,20.3,15.4,17.6,16.2"/>
</g>
</svg>
