<?xml version="1.0" encoding="utf-8"?>
<!-- Generator: Adobe Illustrator 20.0.0, SVG Export Plug-In . SVG Version: 6.00 Build 0)  -->
<svg version="1.1" id="Layer_1" xmlns="http://www.w3.org/2000/svg" xmlns:xlink="http://www.w3.org/1999/xlink" x="0px" y="0px"
	 viewBox="0 0 34.5 34.5" style="enable-background:new 0 0 34.5 34.5;" xml:space="preserve">
<style type="text/css">
	.st0{fill:#00A7C1;}
</style>
<path class="st0" d="M33.9,30.8l-6.7-6.7c1.9-2.5,3-5.6,3-9C30.2,6.8,23.4,0,15.1,0S0,6.8,0,15.1s6.8,15.1,15.1,15.1
	c3.4,0,6.5-1.1,9-3l6.7,6.7c0.4,0.4,0.8,0.6,1.5,0.6c1.2,0,2.2-1,2.2-2.2C34.5,31.9,34.4,31.4,33.9,30.8z M3.4,15.1
	c0-6.5,5.2-11.7,11.7-11.7s11.7,5.2,11.7,11.7s-5.2,11.7-11.7,11.7S3.4,21.5,3.4,15.1z"/>
</svg>
