<?xml version="1.0" encoding="utf-8"?>
<!-- Generator: Adobe Illustrator 20.0.0, SVG Export Plug-In . SVG Version: 6.00 Build 0)  -->
<svg version="1.1" id="圖層_1" xmlns="http://www.w3.org/2000/svg" xmlns:xlink="http://www.w3.org/1999/xlink" x="0px" y="0px"
	 viewBox="0 0 100 88.4" style="enable-background:new 0 0 100 88.4;" xml:space="preserve">
<style type="text/css">
	.st0{fill:#00A7C1;}
</style>
<path class="st0" d="M98,83.6c0,2.7-2.2,4.9-4.9,4.9l0,0H6.9c-2.7,0-4.9-2.2-4.9-4.9s2.2-4.9,4.9-4.9h5.6V47.4l0.5,0.1
	c4.8,0.5,9.6-0.8,13.5-3.7c5.5,4.1,12.8,5,19.1,2.2v32.7h32.2V46.4c1.9,0.6,4,0.9,6,0.9c0.5,0,1,0,1.6-0.1c0.7-0.1,1.5-0.2,2.2-0.3
	v31.8h5.6C95.8,78.7,98,80.9,98,83.6z M67.2,62c-0.6,0-1.1,0.2-1.7,0.4l-11,6.4c-1.6,0.8-2.2,2.8-1.4,4.5c0.8,1.6,2.8,2.2,4.5,1.4
	c0.1,0,0.1-0.1,0.2-0.1l11-6.4c1.6-0.9,2.1-2.9,1.2-4.5C69.5,62.6,68.4,61.9,67.2,62L67.2,62z M70.1,50.1c-0.9-1.6-2.9-2.1-4.5-1.2
	c0,0,0,0,0,0l-11,6.3c-1.6,0.8-2.2,2.8-1.4,4.5c0.8,1.6,2.8,2.2,4.5,1.4c0.1,0,0.1-0.1,0.2-0.1l11-6.4C70.4,53.7,71,51.7,70.1,50.1
	L70.1,50.1z M72.3,34.7c0.3,0,0.6,0.2,0.7,0.4c2.3,3.7,6.4,6,10.8,6c0.3,0,0.7,0,1,0c8.2-0.6,13.1-9.5,9.8-17.1L82.2,2.5
	C81.3,1,79.7,0,78,0H20.8c-1.8,0-3.4,0.9-4.3,2.5L4.3,24c-3.3,7.4,1.3,16.2,9.4,17c0.5,0,0.9,0.1,1.4,0.1c4.4,0,8.5-2.3,10.8-6
	c0.2-0.4,0.7-0.5,1.1-0.3c0.1,0.1,0.2,0.2,0.3,0.3c3.7,6,11.5,7.8,17.5,4.1c1.6-1,3-2.4,4-4c0.2-0.4,0.7-0.5,1.1-0.3
	c0.1,0.1,0.2,0.2,0.3,0.3c3.8,5.9,11.6,7.7,17.5,3.9c1.6-1,3-2.4,4-4C71.7,34.8,72,34.7,72.3,34.7z"/>
</svg>
